<?xml version="1.0" standalone="no"?><!DOCTYPE svg PUBLIC "-//W3C//DTD SVG 1.1//EN" "http://www.w3.org/Graphics/SVG/1.1/DTD/svg11.dtd"><svg t="1560318864720" class="icon" style="" viewBox="0 0 1024 1024" version="1.1" xmlns="http://www.w3.org/2000/svg" p-id="2041" xmlns:xlink="http://www.w3.org/1999/xlink" width="200" height="200"><defs><style type="text/css"></style></defs><path d="M896.5 437.3l-44.3 14c-11.7 4.7-25.6-2.3-30.3-14-4.7-11.7 2.3-25.6 14-30.3l44.3-14c11.7-4.7 25.6 2.3 30.3 14 4.6 14-2.4 28-14 30.3z m-708.5-35c11.7 4.7 18.6 16.3 14 30.3-4.7 9.3-16.3 16.3-30.3 14l-44.3-14c-11.7-4.7-18.6-16.3-14-30.3 4.7-11.7 16.3-18.6 30.3-14l44.3 14z m538.3-200.4c7-9.3 21-11.7 32.6-4.7 9.3 7 11.6 21 4.7 32.6l-28 37.3c-7 9.3-21 11.7-32.6 4.7-9.3-7-11.6-23.3-4.7-32.6l28-37.3z m-435.8 62.9l-28-39.6c-7-9.3-4.7-23.3 4.7-32.6 11.7-7 25.6-4.7 32.6 7l28 37.3c7 9.3 4.7 25.6-4.7 32.6-11.6 7-25.6 4.7-32.6-4.7z m200.4-79.2V139c0-14 9.3-23.3 23.3-23.3s23.3 9.3 23.3 23.3v46.6c0 14-9.3 23.3-23.3 23.3-13.9 0-23.3-9.3-23.3-23.3z m256.4 349.6v233.1H281.2V535.2c0-128.2 104.9-233.1 233.1-233.1 128.1 0 233 104.9 233 233.1zM234.6 861.5v-46.6h559.3v46.6c0 25.6-21 46.6-46.6 46.6H281.2c-25.6 0-46.6-21-46.6-46.6z m0 0" p-id="2042" fill="#e6e6e6"></path></svg>