<?xml version="1.0" standalone="no"?><!DOCTYPE svg PUBLIC "-//W3C//DTD SVG 1.1//EN" "http://www.w3.org/Graphics/SVG/1.1/DTD/svg11.dtd"><svg t="1561175977524" class="icon" viewBox="0 0 1024 1024" version="1.1" xmlns="http://www.w3.org/2000/svg" p-id="6119" xmlns:xlink="http://www.w3.org/1999/xlink" width="128" height="128"><defs><style type="text/css"></style></defs><path d="M744.96 240.64c-9.728-99.328-94.208-176.64-195.584-176.64-106.496 0-193.024 83.968-196.608 188.928-22.528-9.216-46.08-13.824-70.656-13.824-103.424 0-187.392 83.968-187.392 187.392 0 90.624 62.976 165.376 148.48 183.296 2.048 0.512 4.608 1.024 6.656 1.536 3.072 0.512 5.632 1.024 8.704 1.536 4.608 0.512 8.704 1.024 13.312 1.024h2.048c0.512 0 1.536 0.512 2.56 0.512h461.312c106.496-2.048 193.024-85.504 193.024-186.88-0.512-99.328-82.944-181.248-185.856-186.88z m-9.216 357.376H282.624c-3.072 0-5.632-0.512-8.704-0.512-4.096 0-8.192-0.512-12.288-1.024l-9.216-1.536c-1.536-0.512-3.584-0.512-5.12-1.024-77.312-16.384-135.168-84.992-135.168-166.912C112.128 332.8 188.928 256 283.136 256c52.736 0 101.888 23.552 134.144 65.024 2.56 3.584 7.68 4.096 11.264 1.536 3.584-2.56 4.096-7.68 1.536-11.264-16.896-21.504-37.888-38.4-61.44-50.688v-1.536c0-99.328 81.408-180.224 181.248-180.224 95.232 0 174.592 74.24 180.736 168.96 0 4.096 3.584 7.168 7.68 7.168 97.792 2.048 177.152 78.848 177.152 171.008-1.024 94.208-81.408 171.008-179.712 172.032zM486.4 958.976c-2.048 0-4.096-1.536-4.096-4.096v-130.048c0-2.048 1.536-4.096 4.096-4.096 2.048 0 4.096 1.536 4.096 4.096v130.048c-0.512 2.56-2.048 4.096-4.096 4.096z" fill="#222222" p-id="6120"></path><path d="M486.4 857.6c-1.024 0-2.048-0.512-2.56-1.024l-18.944-18.944c-1.536-1.536-1.536-4.096 0-5.632 1.536-1.536 4.096-1.536 5.632 0l15.872 15.872 15.872-15.872c1.536-1.536 4.096-1.536 5.632 0 1.536 1.536 1.536 4.096 0 5.632l-18.944 18.944c-1.024 1.024-1.536 1.024-2.56 1.024zM504.832 949.248c-1.024 0-2.048-0.512-2.56-1.024L486.4 931.84l-15.872 15.872c-1.536 1.536-4.096 1.536-5.632 0-1.536-1.536-1.536-4.096 0-5.632l18.944-18.944c1.536-1.536 4.096-1.536 5.632 0l18.944 18.944c1.536 1.536 1.536 4.096 0 5.632-1.536 1.024-2.56 1.536-3.584 1.536z" fill="#222222" p-id="6121"></path><path d="M542.72 926.72c-0.512 0-1.536 0-2.048-0.512l-112.64-65.024c-2.048-1.024-2.56-3.584-1.536-5.632 1.024-2.048 3.584-2.56 5.632-1.536l112.64 65.024c2.048 1.024 2.56 3.584 1.536 5.632-1.024 1.024-2.56 2.048-3.584 2.048z" fill="#222222" p-id="6122"></path><path d="M429.056 882.688c-1.536 0-3.584-1.024-3.584-3.072-0.512-2.048 0.512-4.096 2.56-4.608l22.016-5.632-5.632-22.016c-0.512-2.048 0.512-4.096 2.56-4.608 2.048-0.512 4.096 0.512 4.608 2.56l6.656 25.6c0.512 2.048-0.512 4.096-2.56 4.608l-25.6 6.656c-0.512 0.512-0.512 0.512-1.024 0.512zM524.8 937.984c-1.536 0-3.584-1.024-3.584-3.072l-6.656-25.6c-0.512-2.048 0.512-4.096 2.56-4.608l25.6-6.656c2.048-0.512 4.096 0.512 4.608 2.56 0.512 2.048-0.512 4.096-2.56 4.608l-22.016 5.632 5.632 22.016c0.512 2.048-0.512 4.096-2.56 4.608-0.512 0.512-1.024 0.512-1.024 0.512z" fill="#222222" p-id="6123"></path><path d="M429.568 926.72c-1.536 0-2.56-0.512-3.584-2.048-1.024-2.048-0.512-4.096 1.536-5.632l112.64-65.024c2.048-1.024 4.096-0.512 5.632 1.536 1.024 2.048 0.512 4.096-1.536 5.632l-112.64 65.024c-0.512 0-1.024 0.512-2.048 0.512z" fill="#222222" p-id="6124"></path><path d="M448 937.984h-1.024c-2.048-0.512-3.584-2.56-2.56-4.608l5.632-22.016-22.016-5.632c-2.048-0.512-3.584-2.56-2.56-4.608 0.512-2.048 2.56-3.584 4.608-2.56l25.6 6.656c2.048 0.512 3.584 2.56 2.56 4.608l-6.656 25.6c-0.512 1.536-2.048 2.56-3.584 2.56zM543.232 882.688h-1.024l-25.6-6.656c-2.048-0.512-3.584-2.56-2.56-4.608l6.656-25.6c0.512-2.048 2.56-3.584 4.608-2.56 2.048 0.512 3.584 2.56 2.56 4.608l-5.632 22.016 22.016 5.632c2.048 0.512 3.584 2.56 2.56 4.608 0 1.536-1.536 2.56-3.584 2.56z" fill="#222222" p-id="6125"></path><path d="M656.384 818.688c-2.048 0-4.096-1.536-4.096-4.096v-151.552c0-2.048 1.536-4.096 4.096-4.096 2.048 0 4.096 1.536 4.096 4.096v151.552c0 2.56-2.048 4.096-4.096 4.096z" fill="#222222" p-id="6126"></path><path d="M656.384 700.416c-1.024 0-2.048-0.512-2.56-1.024l-22.016-22.016c-1.536-1.536-1.536-4.096 0-5.632 1.536-1.536 4.096-1.536 5.632 0l18.944 18.944 18.944-18.944c1.536-1.536 4.096-1.536 5.632 0 1.536 1.536 1.536 4.096 0 5.632l-22.016 22.016c-0.512 1.024-1.536 1.024-2.56 1.024zM678.4 807.424c-1.024 0-2.048-0.512-2.56-1.024l-18.944-18.944-18.944 18.944c-1.536 1.536-4.096 1.536-5.632 0-1.536-1.536-1.536-4.096 0-5.632l22.016-22.016c1.536-1.536 4.096-1.536 5.632 0l22.016 22.016c1.536 1.536 1.536 4.096 0 5.632-1.536 0.512-2.56 1.024-3.584 1.024z" fill="#222222" p-id="6127"></path><path d="M722.432 780.8c-0.512 0-1.536 0-2.048-0.512L588.8 704.512c-2.048-1.024-2.56-3.584-1.536-5.632 1.024-2.048 3.584-2.56 5.632-1.536l131.584 75.776c2.048 1.024 2.56 3.584 1.536 5.632-1.024 1.536-2.56 2.048-3.584 2.048z" fill="#222222" p-id="6128"></path><path d="M589.824 729.6c-1.536 0-3.584-1.024-3.584-3.072-0.512-2.048 0.512-4.096 2.56-4.608l26.112-7.168-7.168-26.112c-0.512-2.048 0.512-4.096 2.56-4.608 2.048-0.512 4.096 0.512 4.608 2.56l8.192 30.208c0.512 2.048-0.512 4.096-2.56 4.608l-30.208 8.192h-0.512zM701.44 794.112c-1.536 0-3.584-1.024-3.584-3.072l-8.192-30.208c-0.512-2.048 0.512-4.096 2.56-4.608l30.208-8.192c2.048-0.512 4.096 0.512 4.608 2.56 0.512 2.048-0.512 4.096-2.56 4.608l-26.112 7.168 7.168 26.112c0.512 2.048-0.512 4.096-2.56 4.608-1.024 1.024-1.536 1.024-1.536 1.024z" fill="#222222" p-id="6129"></path><path d="M590.848 780.8c-1.536 0-2.56-0.512-3.584-2.048-1.024-2.048-0.512-4.096 1.536-5.632l131.584-75.776c2.048-1.024 4.096-0.512 5.632 1.536 1.024 2.048 0.512 4.096-1.536 5.632l-131.584 75.776c-0.512 0.512-1.536 0.512-2.048 0.512z" fill="#222222" p-id="6130"></path><path d="M611.84 794.112h-1.024c-2.048-0.512-3.584-2.56-2.56-4.608l7.168-26.112-26.112-7.168c-2.048-0.512-3.584-2.56-2.56-4.608 0.512-2.048 2.56-3.584 4.608-2.56l30.208 8.192c2.048 0.512 3.584 2.56 2.56 4.608l-8.192 30.208c-0.512 1.024-2.56 2.048-4.096 2.048zM723.456 729.6h-1.024l-30.208-8.192c-2.048-0.512-3.584-2.56-2.56-4.608l8.192-30.208c0.512-2.048 2.56-3.072 4.608-2.56 2.048 0.512 3.584 2.56 2.56 4.608l-7.168 26.112 26.112 7.168c2.048 0.512 3.584 2.56 2.56 4.608 0 2.048-1.536 3.072-3.072 3.072z" fill="#222222" p-id="6131"></path><path d="M337.408 817.664c-3.072 0-5.632-2.56-5.632-5.632v-179.2c0-3.072 2.56-5.632 5.632-5.632 3.072 0 5.632 2.56 5.632 5.632v179.2c-0.512 3.072-2.56 5.632-5.632 5.632z" fill="#222222" p-id="6132"></path><path d="M337.408 678.4c-1.536 0-3.072-0.512-4.096-1.536l-26.112-26.112c-2.048-2.048-2.048-5.632 0-7.68s5.632-2.048 7.68 0l22.016 22.016 22.016-22.016c2.048-2.048 5.632-2.048 7.68 0s2.048 5.632 0 7.68l-26.112 26.112c-0.512 1.024-1.536 1.536-3.072 1.536zM311.296 803.84c-1.536 0-3.072-0.512-4.096-1.536-2.048-2.048-2.048-5.632 0-7.68l26.112-26.112c2.048-2.048 5.632-2.048 7.68 0l26.112 26.112c2.048 2.048 2.048 5.632 0 7.68s-5.632 2.048-7.68 0l-22.016-22.016-22.016 22.016c-1.024 1.024-2.56 1.536-4.096 1.536z" fill="#222222" p-id="6133"></path><path d="M414.72 772.608c-1.024 0-2.048 0-2.56-0.512l-155.136-89.6c-2.56-1.536-3.584-5.12-2.048-7.68 1.536-2.56 5.12-3.584 7.68-2.048l155.136 89.6c2.56 1.536 3.584 5.12 2.048 7.68-1.536 2.048-3.072 2.56-5.12 2.56z" fill="#222222" p-id="6134"></path><path d="M258.56 712.704c-2.56 0-4.608-1.536-5.12-4.096-1.024-3.072 1.024-6.144 4.096-6.656l30.208-8.192-8.192-30.208c-1.024-3.072 1.024-6.144 4.096-6.656 3.072-1.024 6.144 1.024 6.656 4.096l9.728 35.328c1.024 3.072-1.024 6.144-4.096 6.656l-35.328 9.728h-2.048zM390.144 788.48c-2.56 0-4.608-1.536-5.12-4.096l-9.728-35.328c-0.512-1.536 0-3.072 0.512-4.096 0.512-1.024 2.048-2.048 3.584-2.56l35.328-9.728c3.072-1.024 6.144 1.024 6.656 4.096 1.024 3.072-1.024 6.144-4.096 6.656l-30.208 8.192 8.192 30.208c1.024 3.072-1.024 6.144-4.096 6.656h-1.024z" fill="#222222" p-id="6135"></path><path d="M259.584 772.608c-2.048 0-3.584-1.024-4.608-2.56-1.536-2.56-0.512-6.144 2.048-7.68l155.136-89.6c2.56-1.536 6.144-0.512 7.68 2.048 1.536 2.56 0.512 6.144-2.048 7.68l-155.136 89.6c-1.024 0.512-2.048 0.512-3.072 0.512z" fill="#222222" p-id="6136"></path><path d="M284.672 788.48h-1.536c-3.072-1.024-4.608-3.584-4.096-6.656l8.192-30.208-30.208-8.192c-3.072-1.024-4.608-3.584-4.096-6.656 1.024-3.072 3.584-4.608 6.656-4.096l35.328 9.728c3.072 1.024 4.608 3.584 4.096 6.656l-9.728 35.328c0 2.56-2.048 4.096-4.608 4.096zM415.744 712.704h-1.536l-35.328-9.728c-1.536-0.512-2.56-1.536-3.584-2.56-0.512-1.024-1.024-2.56-0.512-4.096l9.728-35.328c1.024-3.072 3.584-4.608 6.656-4.096 3.072 1.024 4.608 3.584 4.096 6.656l-8.192 30.208 30.208 8.192c3.072 1.024 4.608 3.584 4.096 6.656-1.024 2.56-3.072 4.096-5.632 4.096z" fill="#222222" p-id="6137"></path></svg>