<?xml version="1.0" standalone="no"?><!DOCTYPE svg PUBLIC "-//W3C//DTD SVG 1.1//EN" "http://www.w3.org/Graphics/SVG/1.1/DTD/svg11.dtd"><svg t="1562054303155" class="icon" viewBox="0 0 1024 1024" version="1.1" xmlns="http://www.w3.org/2000/svg" p-id="4823" xmlns:xlink="http://www.w3.org/1999/xlink" width="128" height="128"><defs><style type="text/css"></style></defs><path d="M512 800.182857a18.651429 18.651429 0 0 1-12.8-5.485714c-10.971429-10.971429-261.485714-265.508571-261.485714-428.982857A271.725714 271.725714 0 0 1 512 91.428571a271.725714 271.725714 0 0 1 274.285714 274.285715c0 163.474286-250.514286 418.011429-261.485714 428.982857a18.651429 18.651429 0 0 1-12.8 5.485714zM512 128A235.154286 235.154286 0 0 0 274.285714 365.714286c0 128.731429 186.148571 334.994286 237.714286 389.485714 51.565714-54.491429 237.714286-260.754286 237.714286-389.485714A235.154286 235.154286 0 0 0 512 128z" fill="#27E2D4" p-id="4824"></path><path d="M512 457.142857a91.428571 91.428571 0 1 1 91.428571-91.428571 91.428571 91.428571 0 0 1-91.428571 91.428571z m0-146.285714a54.857143 54.857143 0 1 0 54.857143 54.857143A54.857143 54.857143 0 0 0 512 310.857143zM512 932.571429c-208.822857 0-420.571429-43.885714-420.571429-128 0-65.097143 123.977143-96.914286 197.851429-109.714286a18.651429 18.651429 0 0 1 21.211429 14.994286 18.285714 18.285714 0 0 1-14.628572 21.211428c-123.245714 21.942857-167.862857 55.954286-167.862857 73.142857 0 36.571429 149.577143 91.428571 384 91.428572S896 841.142857 896 804.571429c0-17.92-44.617143-51.931429-167.862857-73.142858a18.285714 18.285714 0 0 1-14.628572-21.211428 18.651429 18.651429 0 0 1 21.211429-14.994286c73.142857 13.165714 197.851429 44.982857 197.851429 109.714286 0 83.748571-211.748571 127.634286-420.571429 127.634286z" fill="#27E2D4" p-id="4825"></path></svg>