<?xml version="1.0" standalone="no"?><!DOCTYPE svg PUBLIC "-//W3C//DTD SVG 1.1//EN" "http://www.w3.org/Graphics/SVG/1.1/DTD/svg11.dtd"><svg t="1561175597222" class="icon" viewBox="0 0 1024 1024" version="1.1" xmlns="http://www.w3.org/2000/svg" p-id="1844" xmlns:xlink="http://www.w3.org/1999/xlink" width="128" height="128"><defs><style type="text/css"></style></defs><path d="M659.995071 260.928754c-5.848435 0-10.59063-4.727675-10.59063-10.591219l0-67.959811c0-5.862521 4.742195-10.589173 10.59063-10.589173 5.862761 0 10.603933 4.726651 10.603933 10.589173l0 67.959811C670.599004 256.200056 665.856809 260.928754 659.995071 260.928754z" p-id="1845"></path><path d="M779.726802 285.269116c-1.964828 3.40761-5.525057 5.309936-9.163059 5.309936-1.779602 0-3.622652-0.460488-5.294803-1.413186-5.0799-2.946099-6.845176-9.42158-3.868256-14.486946l33.981298-58.872852c2.915519-5.095042 9.42299-6.814196 14.489586-3.897773 5.048176 2.916423 6.798102 9.392928 3.851882 14.487969L779.726802 285.269116z" p-id="1846"></path><path d="M846.200426 351.754343l58.922338-34.009582c5.032826-2.917446 11.524947-1.197268 14.427162 3.898797 2.946219 5.063319 1.211644 11.511171-3.838579 14.458293l-58.905965 33.979906c-1.688524 0.982374-3.483477 1.439792-5.310153 1.439792-3.651306 0-7.214604-1.933025-9.164082-5.308913C839.400278 361.14727 841.135876 354.671789 846.200426 351.754343z" p-id="1847"></path><path d="M870.512108 471.497541c0-5.862521 4.742195-10.621918 10.60598-10.621918l68.02195 0c5.833084 0 10.57528 4.758374 10.57528 10.621918 0 5.861498-4.742195 10.589173-10.57528 10.589173l-68.02195 0C875.25328 482.086713 870.512108 477.359039 870.512108 471.497541z" p-id="1848"></path><path d="M856.805383 572.85295l58.905965 34.008558c5.050223 2.916423 6.784798 9.425673 3.838579 14.456247-1.936175 3.409656-5.525057 5.314029-9.147709 5.314029-1.795976 0-3.623676-0.461511-5.27843-1.415232l-58.922338-34.008558c-5.06455-2.916423-6.800148-9.423627-3.869279-14.490016C845.215965 571.653635 851.75516 569.904805 856.805383 572.85295z" p-id="1849"></path><path d="M64.285706 620.092857c0 128.001279 104.091901 232.118592 232.124009 232.118592l322.759906 0c113.040057 0 205.020634-91.963505 205.020634-204.982558 0-26.798343-5.450352-52.676733-15.19365-76.55456 19.059859-28.424376 30.370926-62.434981 30.370926-99.17679 0-98.961896-80.453583-179.38353-179.37246-179.38353-10.667381 0-21.087112 1.044796-31.265332 2.8847-41.715763-49.511647-104.059154-81.033571-173.710275-81.033571-108.696968 0-201.982313 77.749782-222.76549 183.188182-0.490184 0.12382-0.951714 0.336668-1.458271 0.491187-3.788435 1.104147-7.473511 2.393513-11.157565 3.681856-2.792717 0.983397-5.584411 1.99647-8.350521 3.070942-3.806855 1.50426-7.517515 3.130294-11.201569 4.818749-2.305603 1.044796-4.635767 2.210341-6.905553 3.315512-3.962404 2.025123-7.952438 4.052293-11.805344 6.262634-1.335469 0.796132-2.622841 1.627057-3.973661 2.393513-46.59918 28.025287-82.585217 71.764464-100.450829 123.947963-0.065494 0.274246-0.200576 0.490164-0.292678 0.76748-1.532975 4.602831-2.930869 9.329483-4.223358 14.08888-0.596612 2.272763-1.180944 4.573155-1.716155 6.877641-0.940457 3.897773-1.796999 7.762801-2.488783 11.694343-0.720437 3.683902-1.258718 7.456832-1.734575 11.202133-0.399106 3.007497-0.841192 5.925966-1.13387 8.993838C64.713466 605.78806 64.285706 612.909248 64.285706 620.092857zM784.652177 526.962783c-25.137523-34.531468-60.794042-61.267389-102.708335-74.771961 0.230253-3.776 0.351008-7.429203 0.351008-10.989285 0-38.432311-9.699294-74.621535-26.582491-106.390076 1.441898-0.061398 2.823417-0.308015 4.282712-0.308015 75.544582 0 137.011987 61.452607 137.011987 136.994094C797.007059 491.325122 792.311937 509.927805 784.652177 526.962783zM106.674832 620.092857c0-5.988388 0.340775-11.879562 0.92613-17.742083 0.240487-2.700505 0.639593-5.340635 1.042792-8.012488 0.365335-2.914376 0.798212-5.894244 1.318072-8.807596 0.67234-3.53143 1.473621-7.031137 2.330164-10.499122 0.417526-1.750877 0.893383-3.499707 1.383567-5.216815 1.13387-4.145413 2.389518-8.256034 3.773085-12.279674 0.308028-0.735757 0.572052-1.442862 0.831982-2.178619 10.863864-29.468149 28.854324-55.896054 52.153914-76.708056 0.028654-0.029676 0.047074-0.093121 0.091078-0.093121 3.699403-3.28379 7.506259-6.41613 11.388841-9.360182 0.615032-0.49221 1.257695-0.951675 1.888077-1.413186 3.604232-2.700505 7.322056-5.248537 11.096164-7.67275 1.061212-0.644683 2.089677-1.257643 3.132469-1.90335 3.622652-2.209318 7.322056-4.38896 11.080814-6.352685 1.196294-0.64673 2.426358-1.166569 3.682007-1.749854 12.127699-6.046716 25.082263-10.775414 38.633438-14.089903 1.674198-0.36839 3.302344-0.890276 4.988822-1.25969l2.792717-0.64366c12.065274-2.394537 24.434483-3.683902 37.202798-3.683902 42.884427 0 83.388545 13.966083 117.077166 40.48711 9.226507 7.213285 22.499332 5.586229 29.74566-3.591805 7.227908-9.208732 5.631485-22.560832-3.560228-29.744441-41.193856-32.4429-90.772002-49.5096-143.262598-49.5096-6.230143 0-12.293481 0.428765-18.386496 0.919952 22.776659-77.259618 94.361907-132.665509 176.996245-132.665509 101.9398 0 184.854536 82.969667 184.854536 184.877661 0 3.989871-0.245604 7.887644-0.49223 11.81714-0.24458 3.806699-0.673363 7.79657-1.225971 12.216229l-1.044838 8.104585c-5.266149 30.4188-18.079491 58.872852-37.81783 83.461877-7.306706 9.115612-5.894485 22.49841 3.237873 29.80584 3.94603 3.15997 8.610451 4.665253 13.245195 4.665253 6.23219 0 12.355905-2.702552 16.545493-7.888667 20.842531-25.968441 35.517343-56.263421 43.35926-88.372723 62.573645 23.329335 106.086407 84.165912 106.086407 152.219867 0 89.661066-72.919694 162.592099-162.597737 162.592099L296.409715 809.820989C191.768276 809.819966 106.674832 724.732056 106.674832 620.092857z" p-id="1850"></path></svg>