<?xml version="1.0" standalone="no"?><!DOCTYPE svg PUBLIC "-//W3C//DTD SVG 1.1//EN" "http://www.w3.org/Graphics/SVG/1.1/DTD/svg11.dtd"><svg t="1563268752214" class="icon" viewBox="0 0 1024 1024" version="1.1" xmlns="http://www.w3.org/2000/svg" p-id="2103" xmlns:xlink="http://www.w3.org/1999/xlink" width="200" height="200"><defs><style type="text/css"></style></defs><path d="M662.161992 294.830265c-0.851408 5.594964-2.432593 27.123411-2.919111 33.934671-0.486519 7.541038-2.189334 18.852595 0.729777 24.812448 3.040741 6.93289 7.05452 10.095261 13.98741 12.041336 19.339114 5.838223 39.408006 6.568001 59.598527 6.568001 59.476897 0 107.03409-27.73156 129.778834-51.570971 21.771707-21.771707 27.73156-45.611118 18.852595-65.43675-14.838817-33.691412-48.530229-38.678228-66.409787-38.678228-8.878964 0-17.879558 1.946074-26.758523 4.013778l-216.014253 84.289346c8.878964-16.906521 4.986816-37.705191-8.878965-51.57097L406.496474 105.574534c-7.905927-7.784297-18.609336-12.041335-29.677634-11.919706H182.454663C167.615846 93.654828 154.723104 99.614681 146.817177 109.466683 132.099989 127.224611 133.802805 153.374985 150.830955 168.94358L308.462978 316.601972c7.905927 7.905927 18.852595 11.919705 29.677634 11.919705h38.070079v601.580235h26.150375V396.39102c39.529635-17.514669 64.463713-27.366671 158.726689-60.814823m-222.947143-32.353486c-4.621927 0-9.000594-1.824445-12.284595-4.986816L167.737476 144.73928c-10.703409-10.21689-3.52726-28.218078 11.311557-28.218078h71.639862l173.078989 180.011878c2.432593 2.554223 0.608148 6.93289-2.919112 6.93289l-80.883715-0.243259h-1.824445z m64.706972 64.950231v-39.651265h106.79083l-106.79083 39.651265z m62.03112-68.84238L284.745197 116.642832h97.303718L542.721678 271.234113c12.527854 12.041335 4.013778 33.204894-13.379261 33.204894h-51.935859c-4.743556 0.12163-9.243853-1.824445-12.527854-5.108445z m383.376648 10.33852c-23.596152 27.123411-69.693788 43.300154-111.291127 43.300154-15.082076 0.12163-44.029932-0.973037-58.50386-5.716593-0.973037 0 5.351704-61.666231 4.378667-61.666231l108.007127-42.327118c17.514669-5.838223 31.988597-4.135408 37.94845-3.40563 16.784891 1.946074 30.650671 15.325336 33.691412 20.312151 7.662668 12.649483 1.946074 26.636893-2.797482 35.759117l-11.433187 13.74415z m-20.55541-23.717781" p-id="2104" fill="#bfbfbf"></path><path d="M766.15534 414.513838c-2.797482 0-5.473334-1.094667-7.541038-3.040741-1.946074-1.946074-3.040741-4.621927-3.040741-7.541039v-15.203705c0-5.959853 4.621927-10.581779 10.581779-10.58178 5.838223 0 10.581779 4.621927 10.58178 10.58178v15.203705c0 2.797482-1.094667 5.473334-3.040741 7.541039-1.946074 1.946074-4.743556 3.040741-7.541039 3.040741zM691.717996 410.37843c-2.067704 0-4.135408-0.608148-5.838223-1.702815-4.986816-2.919112-6.203112-9.608742-3.284-14.595558l8.270816-12.892743c1.946074-2.919112 5.230075-4.621927 8.757334-4.621926 2.067704 0 3.770519 0.364889 5.838223 1.702815 4.986816 2.919112 6.203112 9.608742 3.284001 14.595558l-8.270816 12.892742c-1.946074 2.919112-5.230075 4.621927-8.757335 4.621927zM831.71372 400.03991c-3.162371 0.12163-6.203112-1.337926-8.270816-3.770519l-9.608742-11.676446c-1.702815-2.067704-2.432593-4.865186-2.067704-7.541039 0.364889-2.919112 1.702815-5.351704 3.770519-7.054519 1.702815-1.702815 4.135408-2.067704 6.689631-2.067704 3.284 0 6.203112 1.216296 8.270816 3.770519l9.608742 11.676446c1.702815 2.067704 2.432593 4.865186 2.067704 7.541038-0.364889 2.919112-1.702815 5.351704-3.770519 7.05452-1.946074 1.337926-4.257038 2.067704-6.689631 2.067704z" p-id="2105" fill="#bfbfbf"></path></svg>