<?xml version="1.0" standalone="no"?><!DOCTYPE svg PUBLIC "-//W3C//DTD SVG 1.1//EN" "http://www.w3.org/Graphics/SVG/1.1/DTD/svg11.dtd"><svg t="1561175613948" class="icon" viewBox="0 0 1024 1024" version="1.1" xmlns="http://www.w3.org/2000/svg" p-id="1967" xmlns:xlink="http://www.w3.org/1999/xlink" width="128" height="128"><defs><style type="text/css"></style></defs><path d="M512.027119 244.147556c-147.784773 0-267.971894 120.18629-267.971894 267.856537 0 147.72039 120.187121 267.960914 267.971894 267.960914 147.672205 0 267.913563-120.240525 267.913563-267.960914C779.940682 364.333846 659.699324 244.147556 512.027119 244.147556zM512.027119 716.669426c-112.794454 0-204.672695-91.795683-204.672695-204.665333 0-112.818485 91.878242-204.559932 204.672695-204.559932 112.878368 0 204.622551 91.741447 204.622551 204.559932C716.64967 624.873744 624.905487 716.669426 512.027119 716.669426z" p-id="1968"></path><path d="M512.027119 197.606567c8.771117 0 15.798448-7.081279 15.798448-15.848966L527.825567 80.124875c0-8.766664-7.027332-15.85306-15.798448-15.85306-8.713809 0-15.820962 7.086395-15.820962 15.85306l0 101.631702C496.206157 190.525288 503.313309 197.606567 512.027119 197.606567z" p-id="1969"></path><path d="M333.158146 233.921657c2.919612 5.056156 8.260466 7.924483 13.657604 7.924483 2.696522 0 5.455469-0.729617 7.928901-2.13871 7.58915-4.381797 10.201757-13.995759 5.76145-21.638833l-50.736577-87.972611c-4.356393-7.643074-14.05057-10.17064-21.639719-5.789866-7.58915 4.445242-10.176174 14.054087-5.790104 21.643949L333.158146 233.921657z" p-id="1970"></path><path d="M233.883144 333.134263l-88.029429-50.704822c-7.534912-4.38589-17.234206-1.798972-21.586505 5.734608-4.38607 7.585769-1.803139 17.258059 5.78601 21.585621l87.975192 50.872644c2.50311 1.464351 5.229309 2.134617 7.900248 2.134617 5.421698 0 10.764599-2.922563 13.715935-7.979742C244.055225 347.297844 241.413963 337.578482 233.883144 333.134263z" p-id="1971"></path><path d="M197.537912 512.004093c0-8.717546-7.111246-15.798824-15.90897-15.798824l-101.577535 0c-8.742463 0-15.765701 7.082302-15.765701 15.798824 0 8.81783 7.023238 15.790638 15.765701 15.790638l101.577535 0C190.425643 527.794731 197.537912 520.821923 197.537912 512.004093z" p-id="1972"></path><path d="M218.028412 663.49025l-87.975192 50.760081c-7.58915 4.384867-10.17208 14.054087-5.78601 21.642926 2.918589 5.115508 8.202135 7.979742 13.686258 7.979742 2.666845 0 5.396115-0.729617 7.900248-2.193968l88.029429-50.809199c7.529796-4.334725 10.171057-14.054087 5.76145-21.585621C235.258524 661.695371 225.563324 659.108452 218.028412 663.49025z" p-id="1973"></path><path d="M354.744652 784.405133c-7.534912-4.334725-17.200435-1.743714-21.586505 5.785773l-50.819468 87.976704c-4.38607 7.529487-1.799046 17.194614 5.790104 21.638833 2.528693 1.463328 5.228286 2.079358 7.924808 2.079358 5.425792 0 10.821906-2.75474 13.714912-7.869225l50.736577-87.917352C364.945386 798.401916 362.333801 788.787954 354.744652 784.405133z" p-id="1974"></path><path d="M512.027119 826.501904c-8.713809 0-15.820962 7.086395-15.820962 15.854083l0 101.577466c0 8.713452 7.107153 15.795754 15.820962 15.795754 8.771117 0 15.798448-7.082302 15.798448-15.795754l0-101.577466C527.825567 833.588299 520.798236 826.501904 512.027119 826.501904z" p-id="1975"></path><path d="M690.870507 790.19193c-4.356393-7.588839-14.080247-10.225899-21.611066-5.785773-7.58915 4.381797-10.176174 13.996782-5.794197 21.694091l50.794908 87.917352c2.893005 5.114484 8.293213 7.869225 13.686258 7.869225 2.641262 0 5.425792-0.617054 7.924808-2.079358 7.564589-4.445242 10.14752-14.109346 5.79522-21.638833L690.870507 790.19193z" p-id="1976"></path><path d="M893.941663 714.25033l-87.971098-50.760081c-7.506259-4.327562-17.234206-1.794879-21.586505 5.79396-4.444401 7.53051-1.799046 17.249873 5.78601 21.585621l87.920954 50.809199c2.581907 1.464351 5.283546 2.193968 7.953462 2.193968 5.455469 0 10.793253-2.864234 13.690351-7.979742C904.147514 728.304418 901.590167 718.635197 893.941663 714.25033z" p-id="1977"></path><path d="M943.918916 496.205269l-101.577535 0c-8.797724 0-15.825055 7.082302-15.825055 15.798824 0 8.81783 7.027332 15.790638 15.825055 15.790638l101.577535 0c8.709716 0 15.796402-6.971785 15.796402-15.790638C959.715317 503.286548 952.628632 496.205269 943.918916 496.205269z" p-id="1978"></path><path d="M798.071341 362.756931c2.700616 0 5.425792-0.670266 7.900248-2.134617l87.971098-50.872644c7.648504-4.327562 10.205851-13.999852 5.794197-21.585621-4.330809-7.588839-14.054663-10.229992-21.643813-5.734608l-87.920954 50.704822c-7.585056 4.444219-10.230411 14.163581-5.78601 21.642926C787.278088 359.834368 792.590288 362.756931 798.071341 362.756931z" p-id="1979"></path><path d="M669.259442 239.70743c2.474456 1.409093 5.224192 2.13871 7.924808 2.13871 5.396115 0 10.793253-2.868327 13.686258-7.924483l50.820491-87.971587c4.38607-7.589862 1.769369-17.199731-5.76145-21.643949-7.530819-4.380774-17.313004-1.853208-21.644836 5.789866l-50.819468 87.972611C659.082245 225.712695 661.669269 235.325633 669.259442 239.70743z" p-id="1980"></path></svg>