<?xml version="1.0" standalone="no"?><!DOCTYPE svg PUBLIC "-//W3C//DTD SVG 1.1//EN" "http://www.w3.org/Graphics/SVG/1.1/DTD/svg11.dtd"><svg t="1562233476002" class="icon" viewBox="0 0 1024 1024" version="1.1" xmlns="http://www.w3.org/2000/svg" p-id="5356" xmlns:xlink="http://www.w3.org/1999/xlink" width="128" height="128"><defs><style type="text/css"></style></defs><path d="M330.24 212.48h660.48a30.72 30.72 0 1 0 0-61.44h-660.48a30.72 30.72 0 1 0 0 61.44zM33.28 212.48H122.88v81.92h112.64v-225.28H122.88v81.92H33.28a30.72 30.72 0 1 0 0 61.44zM990.72 481.28H660.48a30.72 30.72 0 1 0 0 61.44h330.24a30.72 30.72 0 1 0 0-61.44zM33.28 542.72H455.68v81.92h112.64V399.36h-112.64v81.92H33.28a30.72 30.72 0 1 0 0 61.44zM990.72 824.32H942.08a30.72 30.72 0 1 0 0 61.44h48.64a30.72 30.72 0 1 0 0-61.44zM755.2 824.32H33.28a30.72 30.72 0 1 0 0 61.44h721.92v81.92h112.64v-225.28h-112.64v81.92z" fill="#00CCB3" p-id="5357"></path></svg>