<?xml version="1.0" standalone="no"?><!DOCTYPE svg PUBLIC "-//W3C//DTD SVG 1.1//EN" "http://www.w3.org/Graphics/SVG/1.1/DTD/svg11.dtd"><svg t="1562840329253" class="icon" viewBox="0 0 1024 1024" version="1.1" xmlns="http://www.w3.org/2000/svg" p-id="3226" xmlns:xlink="http://www.w3.org/1999/xlink" width="128" height="128"><defs><style type="text/css"></style></defs><path d="M872.533 819.627a34.133 34.133 0 0 1-48.213 48.213L492.373 535.893a34.133 34.133 0 0 1 0-48.213L824.32 155.733a34.133 34.133 0 0 1 48.213 48.214L564.907 512z m-341.333 0a34.133 34.133 0 0 1-48.213 48.213l-331.52-331.52a34.133 34.133 0 0 1 0-48.213L483.413 156.16a34.133 34.133 0 0 1 48.214 48.213L223.573 512z" p-id="3227" fill="#4ABDBA"></path></svg>