<?xml version="1.0" standalone="no"?><!DOCTYPE svg PUBLIC "-//W3C//DTD SVG 1.1//EN" "http://www.w3.org/Graphics/SVG/1.1/DTD/svg11.dtd"><svg t="1562841880761" class="icon" viewBox="0 0 1024 1024" version="1.1" xmlns="http://www.w3.org/2000/svg" p-id="4163" xmlns:xlink="http://www.w3.org/1999/xlink" width="128" height="128"><defs><style type="text/css"></style></defs><path d="M870.592 421.488L811.2 456.096a285.824 285.824 0 0 1 0 111.808l59.456 34.608a51.424 51.424 0 0 1 18.592 69.936L838.4 761.152a50.56 50.56 0 0 1-69.36 18.736l-60.064-34.976a303.728 303.728 0 0 1-95.424 56.432V844.8a50.992 50.992 0 0 1-50.768 51.2h-101.568a50.992 50.992 0 0 1-50.784-51.2v-43.456a303.696 303.696 0 0 1-95.424-56.432l-60.064 34.976a50.544 50.544 0 0 1-69.344-18.736l-50.784-88.688a51.424 51.424 0 0 1 18.592-69.936l59.392-34.624a285.872 285.872 0 0 1 0-111.808l-59.392-34.608a51.424 51.424 0 0 1-18.592-69.936l50.784-88.688a50.544 50.544 0 0 1 69.36-18.736l60.064 34.96a303.696 303.696 0 0 1 95.424-56.432V179.2A50.992 50.992 0 0 1 461.216 128h101.552a50.992 50.992 0 0 1 50.784 51.2v43.456a303.696 303.696 0 0 1 95.424 56.432l60.064-34.96a50.544 50.544 0 0 1 69.36 18.736l50.768 88.688a51.424 51.424 0 0 1-18.576 69.936z m-38.08-66.512l-25.392-44.336a25.28 25.28 0 0 0-34.688-9.376L701.904 342.4a252.976 252.976 0 0 0-139.2-81.184V204.8a25.488 25.488 0 0 0-25.392-25.6h-50.704a25.488 25.488 0 0 0-25.392 25.6v56.336a252.96 252.96 0 0 0-139.2 81.184l-70.544-41.072a25.28 25.28 0 0 0-34.688 9.376l-25.392 44.336a25.712 25.712 0 0 0 9.296 34.976l70.832 41.232a248.928 248.928 0 0 0 0 161.6l-70.816 41.232a25.712 25.712 0 0 0-9.296 34.976l25.392 44.336a25.264 25.264 0 0 0 34.688 9.376l70.608-41.088a252.976 252.976 0 0 0 139.2 81.184V819.2a25.488 25.488 0 0 0 25.392 25.6h50.784a25.488 25.488 0 0 0 25.392-25.6v-56.336a252.976 252.976 0 0 0 139.2-81.184l70.544 41.072a25.264 25.264 0 0 0 34.688-9.376l25.392-44.336a25.712 25.712 0 0 0-9.296-34.976l-70.832-41.232a248.928 248.928 0 0 0 0-161.6l70.832-41.232a25.712 25.712 0 0 0 9.12-35.024zM512 640a128 128 0 1 1 126.944-128A127.472 127.472 0 0 1 512 640z m0-204.8a76.8 76.8 0 1 0 76.16 76.8A76.48 76.48 0 0 0 512 435.2z" p-id="4164" fill="#cccccc"></path></svg>