<?xml version="1.0" standalone="no"?><!DOCTYPE svg PUBLIC "-//W3C//DTD SVG 1.1//EN" "http://www.w3.org/Graphics/SVG/1.1/DTD/svg11.dtd"><svg t="1563520597873" class="icon" viewBox="0 0 1024 1024" version="1.1" xmlns="http://www.w3.org/2000/svg" p-id="1973" xmlns:xlink="http://www.w3.org/1999/xlink" width="128" height="128"><defs><style type="text/css"></style></defs><path d="M819.579259 330.619259c-0.18963 0-0.379259 0-0.663704 0 0.094815-1.422222 0.18963-2.844444 0.284444-4.171852L819.2 326.447407c-27.401481-1.896296-54.897778-7.016296-78.506667-14.601481-7.68-2.275556-15.265185-4.835556-22.945185-7.585185-16.213333-4.740741-38.305185-14.222222-63.336296-27.780741-0.284444-0.094815-0.568889-0.284444-0.758519-0.379259-5.878519-3.223704-11.946667-6.542222-18.014815-10.145185-8.248889-4.740741-16.497778-9.765926-24.651852-15.075556-0.284444-0.18963-0.663704-0.379259-0.948148-0.568889-5.878519-3.792593-11.757037-7.68-17.540741-11.757037-3.792593-2.56-7.585185-5.30963-11.377778-8.059259-2.844444-2.085926-5.688889-4.077037-8.533333-6.162963-20.764444-15.54963-41.339259-32.995556-60.586667-51.768889-19.247407 18.773333-39.727407 36.219259-60.586667 51.768889-2.844444 2.180741-5.688889 4.077037-8.533333 6.162963-3.792593 2.74963-7.585185 5.499259-11.377778 8.059259-5.783704 4.077037-11.662222 7.964444-17.540741 11.757037-0.284444 0.18963-0.663704 0.379259-0.948148 0.568889-8.154074 5.30963-16.402963 10.334815-24.651852 15.075556-6.162963 3.602963-12.136296 7.016296-18.014815 10.145185-0.284444 0.094815-0.568889 0.284444-0.758519 0.379259-25.031111 13.463704-47.122963 22.945185-63.336296 27.780741-7.68 2.74963-15.36 5.30963-22.945185 7.585185-23.608889 7.585185-51.105185 12.705185-78.506667 14.601481l-0.094815 0c0.094815 1.327407 0.18963 2.74963 0.284444 4.171852-0.18963 0-0.379259 0-0.663704 0l-0.094815 0c0.758519 12.136296 1.611852 28.16 2.56 45.605926 0.18963 0 0.284444 0 0.474074 0 4.645926 64.948148 17.825185 157.392593 37.736296 211.626667 0.853333 2.37037 1.611852 4.835556 2.56 7.205926 0.379259 1.137778 0.948148 2.085926 1.327407 3.223704 13.937778 35.460741 30.90963 68.171852 50.346667 97.374815 47.122963 71.964444 109.226667 123.733333 179.674074 146.962963l0 0.379259c13.179259 4.361481 24.177778 7.016296 32.900741 8.722963 8.722963-1.706667 19.816296-4.361481 32.900741-8.722963l0-0.379259c70.447407-23.22963 132.551111-74.998519 179.674074-146.962963 19.437037-29.297778 36.408889-61.914074 50.346667-97.374815 0.379259-1.137778 0.948148-2.085926 1.327407-3.223704 0.853333-2.37037 1.611852-4.835556 2.56-7.205926 19.911111-54.328889 33.09037-146.678519 37.736296-211.626667 0.18963 0 0.379259 0 0.474074 0C818.062222 358.779259 818.915556 342.755556 819.579259 330.619259L819.579259 330.619259zM782.885926 365.416296c-0.379259 1.611852-0.663704 3.318519-0.758519 5.025185-4.266667 61.25037-16.402963 151.988148-35.84 205.842963-0.568889 1.422222-1.042963 2.939259-1.517037 4.456296-0.284444 0.948148-0.663704 1.896296-1.137778 3.034074-0.379259 0.948148-0.758519 1.896296-1.042963 2.56-14.506667 37.546667-32.521481 71.585185-53.191111 101.451852-42.382222 60.207407-96.237037 103.063704-155.591111 122.311111-1.422222 0.474074-2.844444 1.042963-4.171852 1.611852-5.973333 1.896296-11.946667 3.413333-17.635556 4.740741-5.688889-1.327407-11.567407-2.844444-17.540741-4.740741-1.327407-0.663704-2.74963-1.232593-4.171852-1.706667-59.448889-19.342222-113.208889-62.198519-155.591111-122.311111-20.66963-29.866667-38.58963-63.81037-53.096296-101.262222-0.379259-0.948148-0.758519-1.801481-1.327407-3.128889-0.379259-0.853333-0.663704-1.801481-0.948148-2.74963-0.474074-1.517037-1.042963-2.939259-1.422222-4.171852-19.531852-54.044444-31.668148-144.782222-35.934815-206.032593-0.094815-1.706667-0.379259-3.413333-0.758519-5.025185l-0.379259-6.637037c18.488889-2.844444 36.314074-6.921481 52.527407-12.041481 7.68-2.275556 15.54963-4.835556 23.893333-7.774815 19.152593-5.688889 42.856296-15.928889 68.740741-29.582222 0.474074-0.18963 0.853333-0.474074 1.232593-0.663704 6.257778-3.318519 12.61037-6.921481 18.868148-10.42963 8.154074-4.551111 16.687407-9.765926 26.168889-15.739259 0.284444-0.18963 0.758519-0.474074 0.948148-0.663704 6.257778-3.982222 12.420741-8.059259 18.299259-12.136296 3.413333-2.37037 6.921481-4.835556 10.334815-7.300741l1.896296-1.327407 3.034074-2.180741c1.991111-1.422222 3.887407-2.74963 5.688889-4.077037 13.558519-10.05037 26.832593-20.574815 39.442963-31.573333 12.705185 10.998519 25.884444 21.522963 39.348148 31.478519 1.991111 1.422222 3.887407 2.844444 5.878519 4.171852l3.223704 2.275556 1.137778 0.853333c3.602963 2.56 7.300741 5.214815 10.619259 7.395556 6.162963 4.266667 12.420741 8.343704 18.014815 11.946667l1.611852 1.042963c9.386667 5.973333 18.014815 11.188148 25.884444 15.644444 6.542222 3.792593 12.894815 7.300741 18.962963 10.524444 0.284444 0.18963 0.758519 0.379259 1.137778 0.568889 25.979259 13.748148 49.777778 24.082963 69.025185 29.771852 8.343704 2.939259 16.118519 5.499259 23.22963 7.585185 16.592593 5.214815 34.607407 9.386667 53.191111 12.231111L782.885926 365.416296z" p-id="1974" fill="#ffffff"></path><path d="M662.281481 435.579259 484.598519 617.813333l-91.022222-93.297778c-6.257778-6.447407-16.497778-6.447407-22.85037 0-6.257778 6.447407-6.257778 16.971852 0 23.419259l102.4 104.96c3.128889 3.223704 7.300741 4.835556 11.377778 4.835556 4.171852 0 8.248889-1.611852 11.377778-4.835556l189.155556-193.896296c6.257778-6.447407 6.257778-16.971852 0-23.419259C678.779259 429.131852 668.634074 429.131852 662.281481 435.579259z" p-id="1975" fill="#ffffff"></path></svg>