<?xml version="1.0" standalone="no"?><!DOCTYPE svg PUBLIC "-//W3C//DTD SVG 1.1//EN" "http://www.w3.org/Graphics/SVG/1.1/DTD/svg11.dtd"><svg t="1565068434049" class="icon" viewBox="0 0 1024 1024" version="1.1" xmlns="http://www.w3.org/2000/svg" p-id="5427" xmlns:xlink="http://www.w3.org/1999/xlink" width="128" height="128"><defs><style type="text/css"></style></defs><path d="M816.9 361.3h-0.3C813.1 196 678.1 63.1 512 63.1S211 196 207.5 361.3h-0.4c-86.9 0-158 71.1-158 158.1s71.1 158.1 158.1 158.1H817c87 0 158.1-71.1 158.1-158.1-0.1-87-71.3-158.1-158.2-158.1z" fill="#FFFFFF" p-id="5428"></path><path d="M816.9 706.6H207.2c-49.8 0-96.8-19.5-132.2-54.9-35.5-35.5-55-82.5-55-132.3s19.5-96.8 54.9-132.3c28.9-28.9 65.5-47.3 105.1-53 7.8-77.5 42.1-149.5 98.4-204.7C341.1 67.9 424.1 34 512 34s171 33.9 233.7 95.4c56.3 55.2 90.6 127 98.4 204.7 39.5 5.7 76.1 24.1 105 53 35.4 35.4 54.9 82.4 54.9 132.2s-19.5 96.8-54.9 132.3c-35.5 35.4-82.3 55-132.2 55zM207.2 390.4c-71.1 0-129 57.8-129 129 0 71 57.8 129 129 129H817c71.1 0 129-57.8 129-129s-57.8-129-129-129h-28.8l-0.6-28.5C784.4 213.2 660.8 92.2 512 92.2s-272.3 121-275.4 269.6l-0.6 28.5h-28.8z" fill="#515151" p-id="5429" data-spm-anchor-id="a313x.7781069.0.i3" class="selected"></path><path d="M417 853m-107 0a107 107 0 1 0 214 0 107 107 0 1 0-214 0Z" fill="#515151" p-id="5430" data-spm-anchor-id="a313x.7781069.0.i1" class="selected"></path><path d="M674 798m-74 0a74 74 0 1 0 148 0 74 74 0 1 0-148 0Z" fill="#515151" p-id="5431" data-spm-anchor-id="a313x.7781069.0.i2" class="selected"></path></svg>