<?xml version="1.0" standalone="no"?><!DOCTYPE svg PUBLIC "-//W3C//DTD SVG 1.1//EN" "http://www.w3.org/Graphics/SVG/1.1/DTD/svg11.dtd"><svg t="1562309094488" class="icon" viewBox="0 0 1024 1024" version="1.1" xmlns="http://www.w3.org/2000/svg" p-id="8095" data-spm-anchor-id="a313x.7781069.0.i36" xmlns:xlink="http://www.w3.org/1999/xlink" width="128" height="128"><defs><style type="text/css"></style></defs><path d="M511.04 588.768c-75.264 0-136.48 61.216-136.48 136.48s61.216 136.48 136.48 136.48c75.264 0 136.48-61.216 136.48-136.48s-61.216-136.48-136.48-136.48zM511.04 827.616c-56.448 0-102.368-45.92-102.368-102.368s45.92-102.368 102.368-102.368c56.448 0 102.368 45.92 102.368 102.368s-45.92 102.368-102.368 102.368z" p-id="8096" data-spm-anchor-id="a313x.7781069.0.i42" class="" fill="#00CCB3"></path><path d="M511.04 435.232c-115.168 0-214.592 67.648-261.376 165.152l25.536 25.536c38.88-91.904 129.92-156.544 235.84-156.544s196.96 64.672 235.84 156.544l25.536-25.536c-46.784-97.504-146.208-165.152-261.376-165.152z" p-id="8097" data-spm-anchor-id="a313x.7781069.0.i41" class="selected" fill="#ffffff"></path><path d="M512.704 162.272c-190.432 0-358.944 95.136-460.896 240.256l24.448 24.448c95.36-139.104 255.392-230.592 436.416-230.592 180.192 0 339.52 90.624 435.04 228.64l24.448-24.448c-102.08-144.032-269.92-238.304-459.52-238.304z" p-id="8098" data-spm-anchor-id="a313x.7781069.0.i37" class="selected" fill="#ffffff"></path><path d="M512.704 298.752c-152.896 0-287.2 80.928-362.496 202.144l24.832 24.832c68.416-115.328 194.112-192.864 337.664-192.864 142.688 0 267.776 76.576 336.448 190.752l24.768-24.768c-75.52-120.096-209.152-200.128-361.216-200.128z" p-id="8099" data-spm-anchor-id="a313x.7781069.0.i40" class="selected" fill="#ffffff"></path></svg>