<?xml version="1.0" standalone="no"?><!DOCTYPE svg PUBLIC "-//W3C//DTD SVG 1.1//EN" "http://www.w3.org/Graphics/SVG/1.1/DTD/svg11.dtd"><svg t="1560994247109" class="icon" style="" viewBox="0 0 1024 1024" version="1.1" xmlns="http://www.w3.org/2000/svg" p-id="1141" xmlns:xlink="http://www.w3.org/1999/xlink" width="200" height="200"><defs><style type="text/css"></style></defs><path d="M908.6 883.1l-155-155c28.1-30.9 50.5-66 66.8-104.4 19.3-45.6 29-94 29-143.9 0-49.9-9.8-98.3-29-143.9-18.6-44-45.3-83.5-79.2-117.5-33.9-33.9-73.5-60.6-117.5-79.2-45.6-19.3-94-29-143.9-29-49.9 0-98.3 9.8-143.9 29-44 18.6-83.5 45.3-117.5 79.2s-60.6 73.5-79.2 117.5c-19.3 45.6-29 94-29 143.9 0 49.9 9.8 98.3 29 143.9 18.6 44 45.3 83.5 79.2 117.5s73.5 60.6 117.5 79.2c45.6 19.3 94 29 143.9 29 49.9 0 98.3-9.8 143.9-29 38.5-16.3 73.6-38.7 104.4-66.8l155 155c3.5 3.5 8.1 5.3 12.7 5.3s9.2-1.8 12.7-5.3c7.1-7.1 7.1-18.5 0.1-25.5z m-428.8-69.7c-184 0-333.6-149.7-333.6-333.6 0-184 149.7-333.6 333.6-333.6 184 0 333.6 149.7 333.6 333.6 0 184-149.6 333.6-333.6 333.6z" p-id="1142" fill="#8a8a8a"></path></svg>