<?xml version="1.0" standalone="no"?><!DOCTYPE svg PUBLIC "-//W3C//DTD SVG 1.1//EN" "http://www.w3.org/Graphics/SVG/1.1/DTD/svg11.dtd"><svg t="1563268521282" class="icon" viewBox="0 0 1024 1024" version="1.1" xmlns="http://www.w3.org/2000/svg" p-id="1902" xmlns:xlink="http://www.w3.org/1999/xlink" width="200" height="200"><defs><style type="text/css"></style></defs><path d="M678.4 754.176c38.912 0 70.656-31.744 70.656-70.656 0-38.912-31.744-70.656-70.656-70.656s-70.656 31.744-70.656 70.656 31.744 70.656 70.656 70.656z m-31.232-70.656c0-17.408 14.336-31.232 31.232-31.232 17.408 0 31.232 14.336 31.232 31.232 0 17.408-14.336 31.232-31.232 31.232-17.408 0.512-31.232-13.824-31.232-31.232z" p-id="1903" fill="#bfbfbf"></path><path d="M642.048 477.184H375.296m-73.216 0H237.056c-36.864 0-71.68 14.336-97.792 40.448s-40.448 60.928-40.448 97.792v136.192c0 36.864 14.336 71.68 40.448 97.792s60.928 40.448 97.792 40.448h543.744c36.864 0 71.68-14.336 97.792-40.448 26.112-26.112 40.448-60.928 40.448-97.792v-136.192c0-36.864-14.336-71.68-40.96-97.792-26.112-26.112-60.928-40.448-97.792-40.448h-65.536M157.184 612.864c0-35.84 26.112-77.312 61.952-77.312l571.904 3.072c35.84 0 68.608 40.96 68.608 77.312v136.192c0 35.84-29.184 82.432-65.536 82.432l-571.904-3.072c-35.84 0-65.536-46.08-65.536-82.432 0.512 0 0.512-136.192 0.512-136.192z" p-id="1904" fill="#bfbfbf"></path><path d="M338.944 754.176c38.912 0 70.656-31.744 70.656-70.656 0-38.912-31.744-70.656-70.656-70.656s-70.656 31.744-70.656 70.656c0 38.912 31.744 70.656 70.656 70.656z m0-101.888c17.408 0 31.232 14.336 31.232 31.232 0 17.408-14.336 31.232-31.232 31.232-17.408 0-31.232-14.336-31.232-31.232-0.512-16.896 13.824-31.232 31.232-31.232zM331.776 513.536c-16.384 0-29.696-13.312-29.696-29.184V154.112c0-16.384 13.312-29.184 29.184-29.184 16.384 0 29.184 13.312 29.184 29.184v330.24c0.512 15.872-12.8 29.184-28.672 29.184zM685.568 513.536c-16.384 0-29.696-13.312-29.696-29.184V154.112c0-16.384 13.312-29.184 29.696-29.184 16.384 0 29.184 13.312 29.184 29.184v330.24c0.512 15.872-12.8 29.184-29.184 29.184z" p-id="1905" fill="#bfbfbf"></path></svg>