<?xml version="1.0" standalone="no"?><!DOCTYPE svg PUBLIC "-//W3C//DTD SVG 1.1//EN" "http://www.w3.org/Graphics/SVG/1.1/DTD/svg11.dtd"><svg t="1561175647860" class="icon" viewBox="0 0 1024 1024" version="1.1" xmlns="http://www.w3.org/2000/svg" p-id="2340" xmlns:xlink="http://www.w3.org/1999/xlink" width="128" height="128"><defs><style type="text/css"></style></defs><path d="M714.30211 177.437202C664.914306 103.128799 580.606793 57.392128 491.195844 57.392128c-120.431701 0-224.09175 78.661547-257.023092 193.192024C133.416965 281.84718 64.285706 374.470717 64.285706 481.189274c0 133.107577 108.400197 241.498216 241.579746 241.498216l380.378499 0c150.793417 0 273.470343-122.605386 273.470343-273.525654C959.715317 308.495096 852.929964 191.651948 714.30211 177.437202zM686.243951 672.847361l-380.378499 0c-105.647391 0-191.608633-86.091774-191.608633-191.658088 0-75.584466 43.949732-142.075833 110.444847-172.946934-2.685265 39.5866 2.943149 79.554894 18.387519 117.473505 3.89998 9.742898 13.254405 15.634072 23.117434 15.634072 3.077208 0 6.278241-0.511653 9.356472-1.802042 12.871673-5.116531 19.027112-19.85214 13.83669-32.533974-15.060614-37.149085-19.284995-76.611865-13.197097-115.170043-2.560417 0-4.940725-0.644683-7.367083-0.644683 4.930491-3.459798 8.782374-8.710382 10.253948-14.735609 22.80122-99.541087 110.043694-169.234379 212.108343-169.234379 62.317808 0 119.341835 26.2652 160.138632 71.102385-13.13058 1.662873-26.405452 3.970428-39.525798 7.688099-70.269223 19.862373-128.630766 65.975621-164.382456 129.777739-6.651763 12.045337-2.360864 27.158547 9.680873 33.9533 3.908166 2.174526 8.07524 3.200902 12.165563 3.200902 8.782374 0 17.240346-4.611018 21.923187-12.809747 29.013966-52.143591 76.729619-89.679485 134.193687-105.954147 23.699719-6.6607 47.858922-9.345856 71.750007-8.198729 0.448226 0.128937 0.821749 0.26299 1.405057 0.382717 118.510877 6.40692 211.266127 104.162338 211.266127 222.792179C909.810723 572.406788 809.428458 672.847361 686.243951 672.847361z" p-id="2341"></path><path d="M401.6887 776.235057c-4.223358-2.178619-9.21218-1.790786-12.996521 0.899486l-98.719324 70.977541c-13.13058 13.063527-20.432169 30.489408-20.432169 49.066509 0 38.176484 31.125133 69.429279 69.504781 69.429279 38.235356 0 69.370723-31.252795 69.370723-69.429279L408.416191 787.252994C408.416191 782.643 405.797443 778.419815 401.6887 776.235057zM383.436263 897.178593c0 24.463158-19.85807 44.450375-44.390795 44.450375-24.608452 0-44.400005-19.986193-44.400005-44.450375 0-11.917424 4.548782-23.064298 11.343814-30.111808l77.446986-55.470359L383.436263 897.178593z" p-id="2342"></path><path d="M603.035514 776.235057c-4.16605-2.178619-9.164082-1.790786-13.005731 0.899486l-98.595499 70.977541c-13.197097 13.063527-20.421935 30.489408-20.421935 49.066509 0 38.176484 31.183464 69.429279 69.42803 69.429279 38.312107 0 69.447474-31.252795 69.447474-69.429279L609.887853 787.252994C609.887853 782.643 607.259895 778.419815 603.035514 776.235057zM584.906902 897.178593c0 24.463158-19.992129 44.450375-44.466523 44.450375-24.531701 0-44.456289-19.986193-44.456289-44.450375 0-11.917424 4.682841-23.064298 11.401121-30.111808l77.522714-55.470359L584.907926 897.178593z" p-id="2343"></path></svg>