<?xml version="1.0" standalone="no"?><!DOCTYPE svg PUBLIC "-//W3C//DTD SVG 1.1//EN" "http://www.w3.org/Graphics/SVG/1.1/DTD/svg11.dtd"><svg t="1561175407628" class="icon" viewBox="0 0 1024 1024" version="1.1" xmlns="http://www.w3.org/2000/svg" p-id="1599" xmlns:xlink="http://www.w3.org/1999/xlink" width="128" height="128"><defs><style type="text/css"></style></defs><path d="M734.508118 795.165198c-13.793709 0-24.960484 11.238972-24.960484 24.981974 0 13.796214 11.166775 24.932856 24.960484 24.932856 13.720028 0 24.964578-11.136641 24.964578-24.932856C759.472696 806.40417 748.228147 795.165198 734.508118 795.165198z" p-id="1600"></path><path d="M586.202461 795.165198c-13.744589 0-24.957414 11.238972-24.957414 24.981974 0 13.796214 11.212825 24.932856 24.957414 24.932856 13.770172 0 24.987091-11.136641 24.987091-24.932856C611.189552 806.40417 599.972633 795.165198 586.202461 795.165198z" p-id="1601"></path><path d="M437.847683 795.165198c-13.744589 0-24.936947 11.238972-24.936947 24.981974 0 13.796214 11.193382 24.932856 24.936947 24.932856 13.796779 0 25.009605-11.136641 25.009605-24.932856C462.857288 806.40417 451.644462 795.165198 437.847683 795.165198z" p-id="1602"></path><path d="M289.568633 795.165198c-13.774266 0-24.937971 11.238972-24.937971 24.981974 0 13.796214 11.163705 24.932856 24.937971 24.932856 13.766079 0 24.956391-11.136641 24.956391-24.932856C314.524 806.40417 303.334712 795.165198 289.568633 795.165198z" p-id="1603"></path><path d="M702.370894 916.356374c-13.747659 0-24.986068 11.192923-24.986068 24.935925 0 13.793144 11.238409 24.981974 24.986068 24.981974 13.767102 0 25.009605-11.189853 25.009605-24.981974C727.380499 927.549298 716.137996 916.356374 702.370894 916.356374z" p-id="1604"></path><path d="M553.989509 916.356374c-13.720028 0-24.911363 11.192923-24.911363 24.935925 0 13.793144 11.191335 24.981974 24.911363 24.981974 13.796779 0 25.009605-11.189853 25.009605-24.981974C578.999114 927.549298 567.786288 916.356374 553.989509 916.356374z" p-id="1605"></path><path d="M405.679758 916.356374c-13.716958 0-24.960484 11.192923-24.960484 24.935925 0 13.793144 11.242503 24.981974 24.960484 24.981974 13.770172 0 25.012675-11.189853 25.012675-24.981974C430.692433 927.549298 419.44993 916.356374 405.679758 916.356374z" p-id="1606"></path><path d="M257.374101 916.356374c-13.743565 0-25.009605 11.192923-25.009605 24.935925 0 13.793144 11.26604 24.981974 25.009605 24.981974 13.747659 0 25.036212-11.189853 25.036212-24.981974C282.410313 927.549298 271.121759 916.356374 257.374101 916.356374z" p-id="1607"></path><path d="M821.676912 212.43632c-0.735787-0.457418-1.12466-1.173732-1.962782-1.632173-2.355747-1.326205-4.85988-2.40477-7.386527-3.730974-1.12466-0.514723-2.302533-1.124614-3.399562-1.684362-30.121229-15.171538-62.104951-24.52865-94.807064-27.901467C664.711683 103.352903 580.531066 57.725726 491.217335 57.725726c-120.434771 0-224.105053 78.685084-257.011835 193.286168-2.706756 0.77055-5.343924 1.840928-7.996442 2.813069-2.96464 1.02126-5.853551 1.940189-8.712786 3.063779-45.247337 17.729803-83.006837 48.127114-109.704966 86.50212-0.076751 0.155543-0.22923 0.254803-0.282444 0.304945-3.753641 5.369288-7.17674 10.834766-10.496482 16.452717-0.335658 0.662079-0.742951 1.333368-1.074516 2.042519-2.988177 5.160533-5.747123 10.480702-8.300377 15.896038-0.511674 0.914836-0.89543 1.886977-1.35696 2.858094-2.424312 5.362124-4.649071 10.777461-6.692697 16.301268-0.228207 0.765433-0.614009 1.375324-0.868823 2.091638 0 0.050142 0 0.25992-0.103358 0.309038-9.169199 25.64917-14.329944 53.185316-14.329944 81.802074 0 133.249817 108.397127 241.565754 241.579746 241.565754l380.410223 0c150.833327 0 273.43862-122.672924 273.43862-273.556353C959.715317 348.34878 904.352184 259.648598 821.676912 212.43632zM686.275674 673.098072 305.865452 673.098072c-105.664788 0-191.609657-85.987397-191.609657-191.647855 0-31.883151 8.076263-62.083987 22.124787-88.803535 0.89543-1.786693 1.684431-3.578502 2.656612-5.262864 4.089299-7.257288 8.766-14.204513 13.873531-20.947078 1.40301-1.790786 2.705732-3.681856 4.16605-5.468548 5.134138-6.285147 10.755389-12.208043 16.628384-17.833157 1.737645-1.635243 3.476314-3.319605 5.366438-5.003967 6.105295-5.41636 12.748871-10.530844 19.647261-15.126512 1.688524-1.173732 3.47222-2.347464 5.209865-3.422959 7.691485-4.801353 15.687927-9.195429 24.118269-12.927427 0.94455-0.411369 1.966875-0.86981 2.888912-1.226944 9.555001-4.085038 19.414961-7.512091 29.686306-9.961886 0 0 0.075728 0 0.179086-0.054235 23.249446-5.720282 47.770914-7.306406 72.605526-3.677762 13.491822 1.997494 26.26423-7.404644 28.306833-21.048385 1.966875-13.640672-7.431554-26.312272-21.076878-28.305673-16.758349-2.40477-33.467577-2.911306-49.870824-1.840928 33.417433-79.759555 111.236918-132.894729 200.452408-132.894729 62.207286 0 119.304995 26.110681 160.082348 70.864978-13.237008 1.794879-26.366564 4.13825-39.500214 7.873318-70.281503 19.871583-128.605182 65.956178-164.270911 129.724527-6.692697 12.004405-2.450919 27.234271 9.683943 33.979906 3.858022 2.145873 7.919691 3.168156 12.131792 3.168156 8.73837 0 17.249556-4.649903 21.793222-12.774955 29.125511-52.118008 76.823767-89.772606 134.333885-106.067734 23.480723-6.646374 47.394322-9.146311 71.046967-8.125051 0.69383 0.103354 1.302722 0.354064 2.046696 0.354064 118.439242 6.490831 211.306038 104.285135 211.306038 222.819808C909.8711 572.799738 809.54512 673.098072 686.275674 673.098072z" p-id="1608"></path></svg>