<?xml version="1.0" standalone="no"?><!DOCTYPE svg PUBLIC "-//W3C//DTD SVG 1.1//EN" "http://www.w3.org/Graphics/SVG/1.1/DTD/svg11.dtd"><svg t="1562121560351" class="icon" viewBox="0 0 1567 1024" version="1.1" xmlns="http://www.w3.org/2000/svg" p-id="3349" xmlns:xlink="http://www.w3.org/1999/xlink" width="195.875" height="128"><defs><style type="text/css"></style></defs><path d="M783.058824 1024C340.690824 1024 0 519.951059 0 519.951059 0 519.951059 294.912 0 783.058824 0 1271.205647 0 1566.117647 519.951059 1566.117647 519.951059 1566.117647 519.951059 1225.426824 1024 783.058824 1024ZM1301.684706 313.042824C1144.048941 164.442353 971.173647 74.270118 777.999059 74.270118 584.764235 74.270118 411.888941 164.442353 254.253176 313.042824 198.294588 366.110118 147.456 424.417882 106.797176 482.785882 101.677176 493.447529 91.497412 504.048941 86.437647 514.650353 96.617412 525.251765 101.677176 535.853176 111.856941 546.454588 157.635765 604.822588 213.534118 657.889882 269.492706 710.957176 432.188235 859.497412 605.063529 944.429176 777.999059 944.429176 950.874353 944.429176 1123.749647 854.196706 1286.445176 710.957176 1347.463529 657.889882 1398.302118 599.521882 1444.080941 546.454588 1454.260706 535.853176 1464.440471 525.251765 1469.500235 514.650353 1464.440471 504.048941 1454.260706 493.447529 1449.140706 482.785882 1403.422118 424.417882 1357.643294 366.110118 1301.684706 313.042824ZM777.999059 764.024471C630.482824 764.024471 508.506353 641.987765 508.506353 482.785882 508.506353 328.944941 625.423059 201.607529 777.999059 201.607529 925.455059 201.607529 1047.491765 328.944941 1047.491765 482.785882 1047.491765 636.687059 930.514824 764.024471 777.999059 764.024471ZM777.999059 286.479059C671.201882 286.479059 584.764235 376.711529 584.764235 488.086588 584.764235 599.521882 671.201882 689.754353 777.999059 689.754353 884.736 689.754353 971.173647 594.221176 971.173647 488.086588 971.173647 376.711529 884.736 286.479059 777.999059 286.479059Z" p-id="3350" fill="#008E8E"></path></svg>