<?xml version="1.0" standalone="no"?><!DOCTYPE svg PUBLIC "-//W3C//DTD SVG 1.1//EN" "http://www.w3.org/Graphics/SVG/1.1/DTD/svg11.dtd"><svg t="1561175673923" class="icon" viewBox="0 0 1024 1024" version="1.1" xmlns="http://www.w3.org/2000/svg" p-id="2460" xmlns:xlink="http://www.w3.org/1999/xlink" width="128" height="128"><defs><style type="text/css"></style></defs><path d="M958.4873 589.357855c-0.304958-3.579525-0.872916-7.055696-1.380497-10.630105-0.536234-4.394077-1.226994-8.789177-2.015996-13.130042-0.846309-4.64888-1.791883-9.298783-2.912449-13.848403-0.662106-2.709715-1.306816-5.41636-2.046696-8.068769-1.536046-5.622044-3.139632-11.192923-5.008266-16.658402-0.050144-0.205685-0.179086-0.461511-0.277327-0.716314-21.103485-61.721737-63.618483-113.427352-118.775924-146.329716-1.401987-0.921999-2.808067-1.790786-4.238708-2.607384-4.623487-2.660596-9.402523-5.163603-14.230679-7.515161-2.531763-1.277086-5.138231-2.606361-7.768236-3.777023-4.420864-2.046612-8.940993-3.986801-13.510242-5.773494-3.122235-1.226944-6.261867-2.351558-9.402523-3.529383-4.469985-1.532913-8.994207-3.113921-13.568573-4.493338-0.536234-0.103354-0.998788-0.309038-1.531952-0.51063-24.502024-124.208906-134.459757-215.818347-262.60648-215.818347-147.642528 0-267.744711 120.070656-267.744711 267.779789 0 4.192485 0.129965 8.484232 0.384779 12.927427-98.282354 31.727609-167.568139 125.077693-167.568139 229.817176 0 133.203768 108.321399 241.573941 241.557232 241.573941l380.358032 0c150.858911 0 273.514347-122.727159 273.514347-273.504164C959.715317 606.012164 959.22718 597.684498 958.4873 589.357855zM686.199947 838.130755l-380.358032 0c-105.641251 0-191.61375-86.041632-191.61375-191.656041 0-80.213903 51.327049-151.848407 125.061328-179.387623 9.223437 37.860283 26.519043 73.574692 51.094749 104.078427 4.878301 6.236028 12.134862 9.402137 19.441568 9.402137 5.518916 0 11.03374-1.840928 15.637783-5.519714 10.755389-8.68787 12.43982-24.37106 3.830392-35.154661-25.265442-31.368428-40.746652-68.211545-45.861346-107.553575 0-0.099261 0.0307-0.201591 0.0307-0.304945-0.69383-5.209652-1.151267-9.863648-1.455201-14.356986-0.309051-4.652973-0.563865-9.29469-0.563865-13.948687 0-120.17708 97.668345-217.86496 217.770528-217.86496 97.440139 0 181.773234 65.196885 208.601329 156.295696-7.15832-0.559748-14.284917-1.12052-21.614136-1.12052-61.880838 0-120.254662 20.180622-168.822764 58.348919-10.885354 8.53335-12.748871 24.216541-4.215171 35.047214 8.529607 10.884908 24.270748 12.774955 35.075257 4.242627 39.6486-31.216979 87.401094-47.669696 137.961654-47.669696 18.058001 0 35.506087 2.397606 52.321743 6.437619 16.37357 3.936659 31.984746 9.607822 46.700492 16.963347 1.222901 0.613984 2.53074 1.222851 3.700427 1.787716 4.629627 2.355651 9.097565 5.008061 13.442701 7.717775 1.147173 0.663102 2.195082 1.272993 3.346348 1.989307 4.497615 2.912329 8.96453 5.980201 13.36288 9.249665 0.614009 0.457418 1.222901 0.972141 1.86761 1.38044 34.077493 26.007327 60.340699 61.412698 75.18641 101.780081 0.330541 0.815575 0.635499 1.581008 0.891336 2.453888 1.657824 4.749164 3.167262 9.600659 4.550829 14.505365 0.582285 1.943258 1.070422 4.090155 1.581073 6.128581 1.021301 4.089132 1.993482 8.232498 2.733363 12.416797 0.639593 3.372817 1.12466 6.852058 1.581073 10.324136 0.46153 3.113921 0.976274 6.236028 1.306816 9.451256 0.610939 6.898107 1.044838 13.846356 1.044838 20.950148C909.817886 737.835492 809.465299 838.130755 686.199947 838.130755z" p-id="2461"></path></svg>