<?xml version="1.0" standalone="no"?><!DOCTYPE svg PUBLIC "-//W3C//DTD SVG 1.1//EN" "http://www.w3.org/Graphics/SVG/1.1/DTD/svg11.dtd"><svg t="1562055563631" class="icon" viewBox="0 0 1024 1024" version="1.1" xmlns="http://www.w3.org/2000/svg" p-id="18753" xmlns:xlink="http://www.w3.org/1999/xlink" width="128" height="128"><defs><style type="text/css"></style></defs><path d="M960 42.666667 192 42.666667C179.2 42.666667 170.666667 51.2 170.666667 64l0 320c0 12.8 8.533333 21.333333 21.333333 21.333333s21.333333-8.533333 21.333333-21.333333L213.333333 85.333333l725.333333 0 0 853.333333L213.333333 938.666667 213.333333 640c0-12.8-8.533333-21.333333-21.333333-21.333333s-21.333333 8.533333-21.333333 21.333333l0 320c0 12.8 8.533333 21.333333 21.333333 21.333333l768 0c12.8 0 21.333333-8.533333 21.333333-21.333333L981.333333 64C981.333333 51.2 972.8 42.666667 960 42.666667zM603.733333 667.733333C599.466667 672 597.333333 676.266667 597.333333 682.666667c0 12.8 8.533333 21.333333 21.333333 21.333333 6.4 0 10.666667-2.133333 14.933333-6.4l170.666667-170.666667c4.266667-4.266667 6.4-8.533333 6.4-14.933333 0-6.4-2.133333-10.666667-6.4-14.933333l-170.666667-170.666667C629.333333 322.133333 625.066667 320 618.666667 320c-12.8 0-21.333333 8.533333-21.333333 21.333333 0 6.4 2.133333 10.666667 6.4 14.933333l134.4 134.4L64 490.666667c-12.8 0-21.333333 8.533333-21.333333 21.333333s8.533333 21.333333 21.333333 21.333333l674.133333 0L603.733333 667.733333z" p-id="18754" fill="#ffffff"></path></svg>