<?xml version="1.0" standalone="no"?><!DOCTYPE svg PUBLIC "-//W3C//DTD SVG 1.1//EN" "http://www.w3.org/Graphics/SVG/1.1/DTD/svg11.dtd"><svg t="1561182470360" class="icon" viewBox="0 0 1024 1024" version="1.1" xmlns="http://www.w3.org/2000/svg" p-id="1286" xmlns:xlink="http://www.w3.org/1999/xlink" width="200" height="200"><defs><style type="text/css"></style></defs><path d="M512 512m-485.052632 0a485.052632 485.052632 0 1 0 970.105264 0 485.052632 485.052632 0 1 0-970.105264 0Z" fill="#696969" p-id="1287"></path><path d="M512 1024c-282.947368 0-512-229.052632-512-512s229.052632-512 512-512 512 229.052632 512 512-229.052632 512-512 512z m0-970.105263c-251.957895 0-458.105263 206.147368-458.105263 458.105263s206.147368 458.105263 458.105263 458.105263 458.105263-206.147368 458.105263-458.105263-206.147368-458.105263-458.105263-458.105263z" fill="#696969" p-id="1288"></path></svg>