<?xml version="1.0" standalone="no"?><!DOCTYPE svg PUBLIC "-//W3C//DTD SVG 1.1//EN" "http://www.w3.org/Graphics/SVG/1.1/DTD/svg11.dtd"><svg t="1561176579588" class="icon" viewBox="0 0 1024 1024" version="1.1" xmlns="http://www.w3.org/2000/svg" p-id="7035" xmlns:xlink="http://www.w3.org/1999/xlink" width="128" height="128"><defs><style type="text/css"></style></defs><path d="M755.712 253.44c-10.24-104.96-99.328-185.856-205.824-185.856-111.616 0-203.264 88.576-207.36 198.656-23.552-9.728-48.64-14.848-74.24-14.848-109.056 0-197.632 88.576-197.632 197.632 0 95.232 66.56 174.08 156.16 192.512 2.56 0.512 4.608 1.024 7.168 1.536l9.216 1.536 13.824 1.536h2.048c1.024 0.512 1.536 0.512 2.56 0.512h485.376c112.128-2.048 203.264-90.112 203.264-196.608 0.512-103.936-86.016-190.464-194.56-196.608z m-9.728 376.832h-476.16c-3.072 0-6.144-0.512-9.216-0.512-4.608 0-8.704-0.512-12.8-1.024-3.072-0.512-6.656-1.024-9.728-1.536-2.048-0.512-3.584-0.512-5.632-1.024-81.408-17.408-142.336-89.6-142.336-176.128 0-99.328 80.896-179.712 179.712-179.712 55.296 0 107.008 25.088 141.312 68.608 3.072 3.584 8.192 4.096 11.776 1.536 3.584-3.072 4.096-8.192 1.536-11.776-17.92-22.528-39.936-40.448-65.024-53.248v-1.536c0-104.448 85.504-189.44 190.464-189.44 100.352 0 183.808 77.824 189.952 177.664 0.512 4.096 3.584 7.68 8.192 7.68 102.912 2.048 186.368 82.944 186.368 180.224 0 97.792-84.48 178.688-188.416 180.224zM322.56 845.312c-8.704 32.768-43.008 52.736-75.776 43.52-32.768-8.704-52.736-43.008-43.52-75.776 8.704-32.768 86.016-82.432 86.016-82.432s41.984 81.408 33.28 114.688zM761.856 917.504c-7.68 29.184-37.376 46.08-66.56 38.4s-46.08-37.376-38.4-66.56 75.776-72.192 75.776-72.192 36.864 71.168 29.184 100.352zM510.976 863.232c-3.072 0-5.632-2.56-5.632-5.632v-184.832c0-3.072 2.56-5.632 5.632-5.632s5.632 2.56 5.632 5.632v184.832c0 3.072-2.56 5.632-5.632 5.632z" fill="#222222" p-id="7036"></path><path d="M510.976 719.36c-1.536 0-3.072-0.512-4.096-1.536l-26.624-26.624c-2.048-2.048-2.048-6.144 0-8.192s6.144-2.048 8.192 0l22.528 22.528 22.528-22.528c2.048-2.048 6.144-2.048 8.192 0s2.048 6.144 0 8.192l-26.624 26.624c-1.536 1.024-3.072 1.536-4.096 1.536zM537.6 849.408c-1.536 0-3.072-0.512-4.096-1.536l-22.528-22.528-22.528 22.528c-2.048 2.048-6.144 2.048-8.192 0s-2.048-6.144 0-8.192l26.624-26.624c2.048-2.048 6.144-2.048 8.192 0l26.624 26.624c2.048 2.048 2.048 6.144 0 8.192-1.024 1.024-2.56 1.536-4.096 1.536z" fill="#222222" p-id="7037"></path><path d="M590.848 817.152c-1.024 0-2.048 0-3.072-1.024l-160.256-92.16c-2.56-1.536-3.584-5.12-2.048-8.192 1.536-2.56 5.12-3.584 8.192-2.048l160.256 92.16c2.56 1.536 3.584 5.12 2.048 8.192-1.024 2.048-3.072 3.072-5.12 3.072z" fill="#222222" p-id="7038"></path><path d="M429.568 755.2c-2.56 0-5.12-1.536-5.632-4.096-1.024-3.072 1.024-6.144 4.096-7.168l30.72-8.192-8.192-30.72c-1.024-3.072 1.024-6.144 4.096-7.168 3.072-1.024 6.144 1.024 7.168 4.096l9.728 36.352c1.024 3.072-1.024 6.144-4.096 7.168l-36.352 9.728h-1.536zM565.248 833.536c-2.56 0-5.12-1.536-5.632-4.096l-9.728-36.352c-1.024-3.072 1.024-6.144 4.096-7.168l36.352-9.728c3.072-1.024 6.144 1.024 7.168 4.096 1.024 3.072-1.024 6.144-4.096 7.168l-30.72 8.192 8.192 30.72c1.024 3.072-1.024 6.144-4.096 7.168-0.512-0.512-1.024 0-1.536 0z" fill="#222222" p-id="7039"></path><path d="M430.592 817.152c-2.048 0-4.096-1.024-5.12-3.072-1.536-2.56-0.512-6.144 2.048-8.192l160.256-92.16c2.56-1.536 6.144-0.512 8.192 2.048 1.536 2.56 0.512 6.144-2.048 8.192l-160.256 92.16c-1.024 1.024-2.048 1.024-3.072 1.024z" fill="#222222" p-id="7040"></path><path d="M456.192 833.024h-1.536c-3.072-1.024-5.12-4.096-4.096-7.168l8.192-30.72-30.72-8.192c-3.072-1.024-5.12-4.096-4.096-7.168 1.024-3.072 4.096-5.12 7.168-4.096l36.352 9.728c3.072 1.024 5.12 4.096 4.096 7.168l-9.728 36.352c-0.512 2.56-3.072 4.096-5.632 4.096zM591.872 755.2h-1.536l-36.352-9.728c-3.072-1.024-5.12-4.096-4.096-7.168l9.728-36.352c1.024-3.072 4.096-5.12 7.168-4.096 3.072 1.024 5.12 4.096 4.096 7.168l-8.192 30.72 30.72 8.192c3.072 1.024 5.12 4.096 4.096 7.168-0.512 2.048-3.072 4.096-5.632 4.096z" fill="#222222" p-id="7041"></path></svg>