<?xml version="1.0" standalone="no"?><!DOCTYPE svg PUBLIC "-//W3C//DTD SVG 1.1//EN" "http://www.w3.org/Graphics/SVG/1.1/DTD/svg11.dtd"><svg t="1561175918664" class="icon" viewBox="0 0 1024 1024" version="1.1" xmlns="http://www.w3.org/2000/svg" p-id="4287" xmlns:xlink="http://www.w3.org/1999/xlink" width="128" height="128"><defs><style type="text/css"></style></defs><path d="M594.496 309.888a128 128 0 0 1 168.736 191.616l-0.064-0.064a32 32 0 1 1-44-46.4 64 64 0 0 0-86.048-94.08l-0.064-0.064a32 32 0 0 1-38.56-51.008z m365.408 130.72a32 32 0 0 1-32 32h-32a32 32 0 0 1 0-64h32a32 32 0 0 1 32 32z m-361.76-287.136a32 32 0 0 1 38.4 24l7.168 31.136a32 32 0 0 1-62.336 14.4l-7.2-31.168a32 32 0 0 1 24-38.4zM868.8 215.84a32 32 0 0 1 4.736 44.992l-20.16 24.864a32 32 0 1 1-49.728-40.256l20.16-24.864a32 32 0 0 1 44.992-4.736zM345.728 752.32a32 32 0 0 1 15.488 42.56l-27.04 57.952a32 32 0 0 1-57.984-27.04l27.008-57.984a32 32 0 0 1 42.56-15.488z m148.128 0a32 32 0 0 1 15.456 42.56l-27.04 57.952a32 32 0 0 1-57.984-27.04l27.04-57.984a32 32 0 0 1 42.528-15.488z m80.48-20.736c53.28-9.344 97.6-57.12 97.6-112.768a113.12 113.12 0 0 0-113.344-112.928c0-87.296-71.04-158.08-158.624-158.08-87.616 0-158.656 70.784-158.656 158.08A113.12 113.12 0 0 0 128 618.88c0 55.744 45.792 103.616 99.264 112.832a32 32 0 0 1-5.28 63.776C133.888 790.24 64 715.968 64 625.12c0-78.816 52.608-145.12 124.096-164.768 19.648-100.64 107.04-176.512 211.84-176.512 104.864 0 192.256 75.872 211.872 176.512 71.488 19.616 124.096 85.952 124.096 164.8 0 90.144-68.8 163.968-156 170.208a32 32 0 0 1-5.568-63.712z" fill="#333333" p-id="4288"></path></svg>