<?xml version="1.0" standalone="no"?><!DOCTYPE svg PUBLIC "-//W3C//DTD SVG 1.1//EN" "http://www.w3.org/Graphics/SVG/1.1/DTD/svg11.dtd"><svg t="1563268910986" class="icon" viewBox="0 0 1024 1024" version="1.1" xmlns="http://www.w3.org/2000/svg" p-id="5807" xmlns:xlink="http://www.w3.org/1999/xlink" width="200" height="200"><defs><style type="text/css"></style></defs><path d="M509.531274 331.508229l37.779442 96.326882 94.420463 0-75.546603 57.803497 37.777395 96.327906-94.429673-57.803497-94.41023 57.803497 37.767162-96.327906-75.55786-57.803497 94.430696 0L509.531274 331.508229 509.531274 331.508229M509.531274 277.921777" p-id="5808" fill="#bfbfbf"></path><path d="M877.131513 973.364763l-715.307406 0c-54.862515 0-99.365078-44.497447-99.365078-99.365078L62.459029 715.044416l59.618842 0 0 139.078569c0 54.897308 4.722558 59.621912 59.621912 59.621912l675.562193 0c54.862515 0 59.613726-4.723581 59.613726-59.621912l0-556.351114c0-54.867632-4.751211-59.617819-59.613726-59.617819l-675.562193 0c-54.898331 0-59.621912 4.750187-59.621912 59.617819l0 357.655749-59.618842 0L62.459029 277.897218c0-54.864562 44.496423-99.335403 99.365078-99.335403l715.307406 0c54.864562 0 99.369172 44.470841 99.369172 99.335403l0 596.102467C976.501708 928.866293 931.997098 973.364763 877.131513 973.364763L877.131513 973.364763 877.131513 973.364763M877.131513 973.364763" p-id="5809" fill="#bfbfbf"></path><path d="M579.093583 774.669398l0-59.624982 397.393799 0 0 59.624982L579.093583 774.669398 579.093583 774.669398 579.093583 774.669398M62.470285 774.669398l0-59.624982 377.530402 0 0 59.624982L62.470285 774.669398 62.470285 774.669398 62.470285 774.669398M62.470285 774.669398" p-id="5810" fill="#bfbfbf"></path><path d="M509.531274 675.317623c16.47216 0 29.806863 13.337773 29.806863 29.78128l0 79.493495c0 16.476253-13.334703 29.80891-29.806863 29.80891-16.447601 0-29.783327-13.332656-29.783327-29.80891l0-79.493495C479.746924 688.655396 493.083673 675.317623 509.531274 675.317623L509.531274 675.317623 509.531274 675.317623M509.531274 675.317623" p-id="5811" fill="#bfbfbf"></path><path d="M410.200988 79.19162l218.556715 0c16.47216 0 29.806863 13.367449 29.806863 29.813003 0 16.476253-13.334703 29.814026-29.806863 29.814026l-218.556715 0c-16.4783 0-29.809933-13.337773-29.809933-29.814026C380.392078 92.558046 393.723711 79.19162 410.200988 79.19162L410.200988 79.19162 410.200988 79.19162M410.200988 79.19162" p-id="5812" fill="#bfbfbf"></path></svg>